<mxfile host="app.diagrams.net" modified="2021-01-29T17:53:38.414Z" agent="5.0 (Windows NT 10.0; Win64; x64) AppleWebKit/537.36 (KHTML, like Gecko) Chrome/88.0.4324.104 Safari/537.36" etag="nItVqCKb69FLW5bQptDT" version="14.2.9" type="github">
  <diagram id="6a731a19-8d31-9384-78a2-239565b7b9f0" name="Page-1">
    <mxGraphModel dx="1102" dy="582" grid="1" gridSize="10" guides="1" tooltips="1" connect="1" arrows="1" fold="1" page="1" pageScale="1" pageWidth="1169" pageHeight="827" background="#ffffff" math="0" shadow="0">
      <root>
        <mxCell id="0" />
        <mxCell id="1" parent="0" />
        <mxCell id="o16C_jnim6qpKf14wq2h-64" value="" style="edgeStyle=orthogonalEdgeStyle;rounded=0;orthogonalLoop=1;jettySize=auto;html=1;" edge="1" parent="1" source="o16C_jnim6qpKf14wq2h-55" target="o16C_jnim6qpKf14wq2h-56">
          <mxGeometry relative="1" as="geometry" />
        </mxCell>
        <mxCell id="o16C_jnim6qpKf14wq2h-55" value="Inicio / Welcome" style="rounded=1;whiteSpace=wrap;html=1;" vertex="1" parent="1">
          <mxGeometry x="80" y="40" width="120" height="60" as="geometry" />
        </mxCell>
        <mxCell id="o16C_jnim6qpKf14wq2h-65" value="" style="edgeStyle=orthogonalEdgeStyle;rounded=0;orthogonalLoop=1;jettySize=auto;html=1;" edge="1" parent="1" source="o16C_jnim6qpKf14wq2h-56" target="o16C_jnim6qpKf14wq2h-57">
          <mxGeometry relative="1" as="geometry" />
        </mxCell>
        <mxCell id="o16C_jnim6qpKf14wq2h-56" value="Olá, sou o chatbot da área de Informática" style="rounded=0;whiteSpace=wrap;html=1;" vertex="1" parent="1">
          <mxGeometry x="55" y="140" width="170" height="80" as="geometry" />
        </mxCell>
        <mxCell id="o16C_jnim6qpKf14wq2h-68" style="edgeStyle=orthogonalEdgeStyle;rounded=0;orthogonalLoop=1;jettySize=auto;html=1;entryX=0.5;entryY=0;entryDx=0;entryDy=0;" edge="1" parent="1" source="o16C_jnim6qpKf14wq2h-57" target="o16C_jnim6qpKf14wq2h-66">
          <mxGeometry relative="1" as="geometry" />
        </mxCell>
        <mxCell id="o16C_jnim6qpKf14wq2h-57" value="Como posso ajudar?" style="rounded=0;whiteSpace=wrap;html=1;" vertex="1" parent="1">
          <mxGeometry x="50" y="270" width="170" height="80" as="geometry" />
        </mxCell>
        <mxCell id="o16C_jnim6qpKf14wq2h-58" value="Somos da equipe de Suporte Nível 1" style="rounded=0;whiteSpace=wrap;html=1;" vertex="1" parent="1">
          <mxGeometry x="120" y="680" width="170" height="80" as="geometry" />
        </mxCell>
        <mxCell id="o16C_jnim6qpKf14wq2h-59" value="" style="rounded=0;whiteSpace=wrap;html=1;" vertex="1" parent="1">
          <mxGeometry x="690" y="150" width="170" height="80" as="geometry" />
        </mxCell>
        <mxCell id="o16C_jnim6qpKf14wq2h-60" value="" style="rounded=0;whiteSpace=wrap;html=1;" vertex="1" parent="1">
          <mxGeometry x="240" y="480" width="170" height="80" as="geometry" />
        </mxCell>
        <mxCell id="o16C_jnim6qpKf14wq2h-71" style="edgeStyle=orthogonalEdgeStyle;rounded=0;orthogonalLoop=1;jettySize=auto;html=1;" edge="1" parent="1" source="o16C_jnim6qpKf14wq2h-66" target="o16C_jnim6qpKf14wq2h-70">
          <mxGeometry relative="1" as="geometry" />
        </mxCell>
        <mxCell id="o16C_jnim6qpKf14wq2h-66" value="Quem somos" style="rounded=1;whiteSpace=wrap;html=1;" vertex="1" parent="1">
          <mxGeometry x="42.5" y="400" width="185" height="60" as="geometry" />
        </mxCell>
        <mxCell id="o16C_jnim6qpKf14wq2h-69" value="" style="rhombus;whiteSpace=wrap;html=1;" vertex="1" parent="1">
          <mxGeometry x="520" y="440" width="80" height="80" as="geometry" />
        </mxCell>
        <mxCell id="o16C_jnim6qpKf14wq2h-72" style="edgeStyle=orthogonalEdgeStyle;rounded=0;orthogonalLoop=1;jettySize=auto;html=1;entryX=0.5;entryY=0;entryDx=0;entryDy=0;exitX=0.438;exitY=1;exitDx=0;exitDy=0;exitPerimeter=0;" edge="1" parent="1" source="o16C_jnim6qpKf14wq2h-70" target="o16C_jnim6qpKf14wq2h-58">
          <mxGeometry relative="1" as="geometry" />
        </mxCell>
        <mxCell id="o16C_jnim6qpKf14wq2h-70" value="" style="rhombus;whiteSpace=wrap;html=1;" vertex="1" parent="1">
          <mxGeometry x="95" y="520" width="80" height="80" as="geometry" />
        </mxCell>
        <mxCell id="o16C_jnim6qpKf14wq2h-73" value="quem somos" style="text;html=1;strokeColor=none;fillColor=none;align=center;verticalAlign=middle;whiteSpace=wrap;rounded=0;" vertex="1" parent="1">
          <mxGeometry x="130" y="620" width="90" height="20" as="geometry" />
        </mxCell>
      </root>
    </mxGraphModel>
  </diagram>
</mxfile>
